<svg xmlns="http://www.w3.org/2000/svg" viewBox="0 0 1880 512" width="1880" height="512" role="img" aria-label="HAQDAAR">
  <title>HAQDAAR</title>
  <g><rect width="512" height="512" rx="118" fill="#1C5836"/>
  <path d="M350 47Q368 61 378.0 76.0Q388 91 388 107Q388 128 369.0 141.0Q350 154 309 154Q260 154 233.5 136.0Q207 118 207 86Q207 60 229.0 38.5Q251 17 298.5 -3.5Q346 -24 422 -49L359 -169Q250 -140 182.0 -102.5Q114 -65 82.5 -18.0Q51 29 51 84Q51 151 87 193Q95 202 105 211Q83 230 71 250Q50 283 50 319Q50 382 97.0 415.0Q144 448 230 448H348V498H0V622H592V498H503V330H254Q227 330 215.5 321.0Q204 312 204 295Q204 281 216 268Q218 266 220 263Q265 273 317 273Q397 273 447.0 251.0Q497 229 520.0 193.0Q543 157 543 113Q543 75 528.0 42.5Q513 10 481 -21Z" fill="#FBF8F0" transform="translate(100.74 341.90) scale(0.37927 -0.37927)"/>
  <circle cx="377.3" cy="372.0" r="34" fill="#D9812A"/></g><g fill="#14261D" transform="translate(598.0 334.5)"><path d="M538 0V287H260V0H74V730H260V449H538V730H724V0Z" transform="translate(0.00 0) scale(0.21800 -0.21800)"/><path d="M8 0 242 730H540L782 0H590L537 169H246L194 0ZM489 321 408 580H371L292 321Z" transform="translate(185.95 0) scale(0.21800 -0.21800)"/><path d="M577 -220Q505 -220 452.0 -204.0Q399 -188 369.5 -145.0Q340 -102 340 -20V-12Q296 -3 258 15Q184 49 135.0 105.5Q86 162 62.0 228.0Q38 294 38 356V378Q38 447 63.0 513.5Q88 580 138.0 634.0Q188 688 261.5 720.0Q335 752 432 752Q528 752 601.5 720.0Q675 688 725.0 634.0Q775 580 800.5 513.5Q826 447 826 378V356Q826 294 801.5 228.0Q777 162 728.0 105.5Q679 49 605 15Q563 -5 514 -13V-24Q514 -52 529.5 -66.0Q545 -80 573 -80H677V-220ZM432 154Q480 154 518.0 170.0Q556 186 583.0 215.0Q610 244 624.0 282.5Q638 321 638 366Q638 414 623.5 453.0Q609 492 582.0 520.0Q555 548 517.0 563.0Q479 578 432 578Q384 578 346.0 563.0Q308 548 281.0 520.0Q254 492 240.0 453.0Q226 414 226 366Q226 321 240.0 282.5Q254 244 281.0 215.0Q308 186 346.0 170.0Q384 154 432 154Z" transform="translate(370.16 0) scale(0.21800 -0.21800)"/><path d="M74 -4V736H352Q451 736 525.5 708.0Q600 680 650.0 630.5Q700 581 725.0 516.0Q750 451 750 378V356Q750 289 725.0 224.5Q700 160 650.0 108.5Q600 57 525.5 26.5Q451 -4 352 -4ZM260 562V170H360Q407 170 444.5 183.5Q482 197 508.0 222.5Q534 248 548.0 284.5Q562 321 562 367Q562 415 548.0 451.5Q534 488 508.0 512.5Q482 537 444.5 549.5Q407 562 360 562Z" transform="translate(570.51 0) scale(0.21800 -0.21800)"/><path d="M8 0 242 730H540L782 0H590L537 169H246L194 0ZM489 321 408 580H371L292 321Z" transform="translate(752.10 0) scale(0.21800 -0.21800)"/><path d="M8 0 242 730H540L782 0H590L537 169H246L194 0ZM489 321 408 580H371L292 321Z" transform="translate(936.31 0) scale(0.21800 -0.21800)"/><path d="M74 0V736H377Q472 736 541.0 707.5Q610 679 647.0 623.5Q684 568 684 486V470Q684 388 647 334Q611 283 549 255L728 0H514L366 224H260V0ZM260 580V367H388Q421 367 445.0 380.0Q469 393 482.5 417.0Q496 441 496 473Q496 506 482.5 530.0Q469 554 445.0 567.0Q421 580 388 580Z" transform="translate(1120.52 0) scale(0.21800 -0.21800)"/></g>
</svg>
